<?xml version="1.0" encoding="UTF-8" standalone="no"?>
<!-- Created with Inkscape (http://www.inkscape.org/) -->

<svg
   xmlns:dc="http://purl.org/dc/elements/1.1/"
   xmlns:cc="http://creativecommons.org/ns#"
   xmlns:rdf="http://www.w3.org/1999/02/22-rdf-syntax-ns#"
   xmlns:svg="http://www.w3.org/2000/svg"
   xmlns="http://www.w3.org/2000/svg"
   xmlns:xlink="http://www.w3.org/1999/xlink"
   xmlns:sodipodi="http://sodipodi.sourceforge.net/DTD/sodipodi-0.dtd"
   xmlns:inkscape="http://www.inkscape.org/namespaces/inkscape"
   width="115"
   height="115"
   id="svg2"
   version="1.1"
   inkscape:version="0.47 r22583"
   sodipodi:docname="scrollbar.svg"
   inkscape:export-filename="/home/anton/Teman/mockups/gree-hey.png"
   inkscape:export-xdpi="90"
   inkscape:export-ydpi="90">
  <sodipodi:namedview
     id="base"
     pagecolor="#ffffff"
     bordercolor="#666666"
     borderopacity="1.0"
     inkscape:pageopacity="0.0"
     inkscape:pageshadow="2"
     inkscape:zoom="4"
     inkscape:cx="52.089056"
     inkscape:cy="52.331137"
     inkscape:document-units="px"
     inkscape:current-layer="layer1"
     showgrid="false"
     inkscape:window-width="1084"
     inkscape:window-height="662"
     inkscape:window-x="0"
     inkscape:window-y="0"
     inkscape:window-maximized="0">
    <inkscape:grid
       snapvisiblegridlinesonly="true"
       enabled="true"
       visible="true"
       empspacing="5"
       id="grid2816"
       type="xygrid" />
  </sodipodi:namedview>
  <defs
     id="defs4">
    <linearGradient
       id="linearGradient5432">
      <stop
         id="stop5434"
         offset="0"
         style="stop-color:#4c4c4c;stop-opacity:1;" />
      <stop
         id="stop5436"
         offset="1"
         style="stop-color:#222222;stop-opacity:1;" />
    </linearGradient>
    <linearGradient
       id="linearGradient4833">
      <stop
         id="stop4835"
         offset="0"
         style="stop-color:#1d1d1d;stop-opacity:1;" />
      <stop
         style="stop-color:#1a1a1a;stop-opacity:0.49803922;"
         offset="0.5"
         id="stop4841" />
      <stop
         id="stop4843"
         offset="0.75"
         style="stop-color:#1a1a1a;stop-opacity:0.24705882;" />
      <stop
         id="stop4837"
         offset="1"
         style="stop-color:#292929;stop-opacity:0.47058824;" />
    </linearGradient>
    <linearGradient
       id="linearGradient4783">
      <stop
         style="stop-color:#ffffff;stop-opacity:0;"
         offset="0"
         id="stop4785" />
      <stop
         id="stop4787"
         offset="0.5"
         style="stop-color:#ffffff;stop-opacity:0.39072847;" />
      <stop
         style="stop-color:#ffffff;stop-opacity:0;"
         offset="1"
         id="stop4789" />
    </linearGradient>
    <linearGradient
       id="linearGradient4769">
      <stop
         id="stop4771"
         offset="0"
         style="stop-color:#000000;stop-opacity:0;" />
      <stop
         style="stop-color:#000000;stop-opacity:0.29139072;"
         offset="0.5"
         id="stop4777" />
      <stop
         id="stop4773"
         offset="1"
         style="stop-color:#000000;stop-opacity:0;" />
    </linearGradient>
    <linearGradient
       id="linearGradient4459">
      <stop
         id="stop4461"
         offset="0"
         style="stop-color:#1e1e1e;stop-opacity:1;" />
      <stop
         id="stop4463"
         offset="1"
         style="stop-color:#1e1e1e;stop-opacity:1;" />
    </linearGradient>
    <linearGradient
       id="linearGradient4018">
      <stop
         id="stop4020"
         offset="0"
         style="stop-color:#000000;stop-opacity:1;" />
      <stop
         style="stop-color:#000000;stop-opacity:0.31125829;"
         offset="0.5"
         id="stop4377" />
      <stop
         id="stop4379"
         offset="0.75"
         style="stop-color:#000000;stop-opacity:0.08609272;" />
      <stop
         id="stop4022"
         offset="1"
         style="stop-color:#000000;stop-opacity:0;" />
    </linearGradient>
    <linearGradient
       id="linearGradient3955">
      <stop
         style="stop-color:#1d1d1d;stop-opacity:1;"
         offset="0"
         id="stop3957" />
      <stop
         style="stop-color:#070707;stop-opacity:0.32941177;"
         offset="1"
         id="stop3959" />
    </linearGradient>
    <linearGradient
       id="linearGradient3928">
      <stop
         id="stop3930"
         offset="0"
         style="stop-color:#ffffff;stop-opacity:0.01960784;" />
      <stop
         id="stop3932"
         offset="1"
         style="stop-color:#ffffff;stop-opacity:0.01960784;" />
    </linearGradient>
    <linearGradient
       id="linearGradient3913">
      <stop
         id="stop3915"
         offset="0"
         style="stop-color:#161616;stop-opacity:1;" />
      <stop
         id="stop3917"
         offset="1"
         style="stop-color:#0c0c0c;stop-opacity:1;" />
    </linearGradient>
    <linearGradient
       id="linearGradient3836">
      <stop
         id="stop3838"
         offset="0"
         style="stop-color:#292929;stop-opacity:1;" />
      <stop
         id="stop3840"
         offset="1"
         style="stop-color:#292929;stop-opacity:1;" />
    </linearGradient>
    <linearGradient
       id="linearGradient3799">
      <stop
         style="stop-color:#2a2a2a;stop-opacity:1;"
         offset="0"
         id="stop3801" />
      <stop
         style="stop-color:#202020;stop-opacity:1;"
         offset="1"
         id="stop3803" />
    </linearGradient>
    <linearGradient
       id="linearGradient3738">
      <stop
         id="stop3740"
         offset="0"
         style="stop-color:#000000;stop-opacity:0.25827813;" />
      <stop
         style="stop-color:#000000;stop-opacity:0.08609272;"
         offset="0.5"
         id="stop3746" />
      <stop
         id="stop3742"
         offset="1"
         style="stop-color:#000000;stop-opacity:0;" />
    </linearGradient>
    <linearGradient
       id="linearGradient3730">
      <stop
         id="stop3732"
         offset="0"
         style="stop-color:#565656;stop-opacity:0.36423841;" />
      <stop
         id="stop3734"
         offset="1"
         style="stop-color:#3d3d3d;stop-opacity:0;" />
    </linearGradient>
    <linearGradient
       id="linearGradient3720">
      <stop
         style="stop-color:#3d3d3d;stop-opacity:0.20529801;"
         offset="0"
         id="stop3722" />
      <stop
         style="stop-color:#3d3d3d;stop-opacity:0;"
         offset="1"
         id="stop3724" />
    </linearGradient>
    <linearGradient
       id="linearGradient3704">
      <stop
         id="stop3706"
         offset="0"
         style="stop-color:#3d3d3d;stop-opacity:0.23178808;" />
      <stop
         id="stop3708"
         offset="1"
         style="stop-color:#3d3d3d;stop-opacity:0;" />
    </linearGradient>
    <linearGradient
       id="linearGradient3684">
      <stop
         id="stop3686"
         offset="0"
         style="stop-color:#3f3f3f;stop-opacity:0.10596026;" />
      <stop
         id="stop3688"
         offset="1"
         style="stop-color:#3f3f3f;stop-opacity:0;" />
    </linearGradient>
    <linearGradient
       id="linearGradient3666">
      <stop
         id="stop3668"
         offset="0"
         style="stop-color:#1e1e1e;stop-opacity:1;" />
      <stop
         id="stop3670"
         offset="1"
         style="stop-color:#161616;stop-opacity:1;" />
    </linearGradient>
    <linearGradient
       id="linearGradient3631">
      <stop
         id="stop3633"
         offset="0"
         style="stop-color:#2a2a2a;stop-opacity:1;" />
      <stop
         id="stop3635"
         offset="1"
         style="stop-color:#202020;stop-opacity:1;" />
    </linearGradient>
    <linearGradient
       id="linearGradient3616">
      <stop
         style="stop-color:#111111;stop-opacity:1;"
         offset="0"
         id="stop3618" />
      <stop
         style="stop-color:#111111;stop-opacity:1;"
         offset="1"
         id="stop3620" />
    </linearGradient>
    <linearGradient
       id="linearGradient3594">
      <stop
         id="stop3596"
         offset="0"
         style="stop-color:#0f0f0f;stop-opacity:1;" />
      <stop
         id="stop3598"
         offset="1"
         style="stop-color:#161616;stop-opacity:1;" />
    </linearGradient>
    <inkscape:perspective
       id="perspective10"
       inkscape:persp3d-origin="372.04724 : 350.78739 : 1"
       inkscape:vp_z="744.09448 : 526.18109 : 1"
       inkscape:vp_y="0 : 1000 : 0"
       inkscape:vp_x="0 : 526.18109 : 1"
       sodipodi:type="inkscape:persp3d" />
    <linearGradient
       y2="594"
       x2="256.5"
       y1="575"
       x1="256.5"
       gradientTransform="matrix(1,0,0,-1,-43,1171)"
       gradientUnits="userSpaceOnUse"
       id="linearGradient3991"
       xlink:href="#linearGradient3684"
       inkscape:collect="always" />
  </defs>
  <metadata
     id="metadata7">
    <rdf:RDF>
      <cc:Work
         rdf:about="">
        <dc:format>image/svg+xml</dc:format>
        <dc:type
           rdf:resource="http://purl.org/dc/dcmitype/StillImage" />
        <dc:title />
      </cc:Work>
    </rdf:RDF>
  </metadata>
  <g
     transform="translate(0,-937.36218)"
     id="layer1"
     inkscape:groupmode="layer"
     inkscape:label="Layer 1">
    <rect
       y="937.36218"
       x="0"
       height="115"
       width="115"
       id="rect2818"
       style="fill:#111111;fill-opacity:1;stroke:none" />
    <g
       id="background-vertical-right">
      <path
         style="fill:#151515;fill-opacity:1;stroke:none"
         d="m 26,1020.3622 0,4 4,0 0,-4 -4,0 z"
         id="rect4411" />
      <path
         style="fill:#0c0c0c;fill-opacity:1;stroke:none"
         d="m 26,1024.3622 3,0 0,-4 -3,0 0,4 z"
         id="path4178" />
    </g>
    <g
       id="background-vertical-left">
      <path
         style="fill:#151515;fill-opacity:1;stroke:none"
         d="m 19,1020.3622 -1,0 0,4 1,0 0,-4 z"
         id="path4206" />
      <path
         style="fill:#0c0c0c;fill-opacity:1;stroke:none"
         d="m 22,1020.3622 -3,0 0,4 3,0 0,-4 z"
         id="path4176" />
    </g>
    <g
       id="background-vertical-center">
      <path
         style="fill:#0c0c0c;fill-opacity:1;stroke:none"
         d="m 22,1020.3622 0,4 4,0 0,-4 -4,0 z"
         id="rect4381" />
    </g>
    <rect
       y="962.36218"
       x="45"
       height="1.0000014"
       width="3.9999981"
       id="rect4399"
       style="fill:#2c2c2c;fill-opacity:1;stroke:none" />
    <rect
       style="fill:#2c2c2c;fill-opacity:1;stroke:none"
       id="rect4401"
       width="3.9999981"
       height="1.0000014"
       x="45"
       y="964.36218" />
    <rect
       y="960.36218"
       x="45"
       height="1.0000014"
       width="3.9999981"
       id="rect4403"
       style="fill:#2c2c2c;fill-opacity:1;stroke:none" />
    <rect
       style="fill:#1d1d1d;fill-opacity:1;stroke:none"
       id="rect4405"
       width="3.9999981"
       height="1.0000014"
       x="45"
       y="959.36218" />
    <rect
       y="961.36218"
       x="45"
       height="1.0000014"
       width="3.9999981"
       id="rect4407"
       style="fill:#1d1d1d;fill-opacity:1;stroke:none" />
    <rect
       style="fill:#1d1d1d;fill-opacity:1;stroke:none"
       id="rect4409"
       width="3.9999981"
       height="1.0000014"
       x="45"
       y="963.36218" />
    <rect
       style="fill:#464646;fill-opacity:1;stroke:none"
       id="rect4421"
       width="3.9999981"
       height="1.0000014"
       x="77"
       y="975.36218" />
    <rect
       y="977.36218"
       x="77"
       height="1.0000014"
       width="3.9999981"
       id="rect4423"
       style="fill:#464646;fill-opacity:1;stroke:none" />
    <rect
       style="fill:#464646;fill-opacity:1;stroke:none"
       id="rect4425"
       width="3.9999981"
       height="1.0000014"
       x="77"
       y="973.36218" />
    <rect
       y="972.36218"
       x="77"
       height="1.0000014"
       width="3.9999981"
       id="rect4427"
       style="fill:#2d2d2d;fill-opacity:1;stroke:none" />
    <rect
       style="fill:#2d2d2d;fill-opacity:1;stroke:none"
       id="rect4429"
       width="3.9999981"
       height="1.0000014"
       x="77"
       y="974.36218" />
    <rect
       y="976.36218"
       x="77"
       height="1.0000014"
       width="3.9999981"
       id="rect4431"
       style="fill:#2d2d2d;fill-opacity:1;stroke:none" />
    <g
       id="arrow-down"
       transform="translate(17,11.99998)">
      <rect
         y="1029.3622"
         x="18"
         height="8"
         width="12"
         id="rect5216"
         style="opacity:0.7;fill:#000000;fill-opacity:0.00392157;stroke:none" />
      <path
         sodipodi:nodetypes="cccc"
         id="path4435"
         d="m 20,1030.3622 8,0 -4,4 -4,-4 z"
         style="fill:#181818;fill-opacity:1;stroke:none" />
      <path
         style="fill:#0c0c0c;fill-opacity:1;stroke:none"
         d="m 20,1029.3622 8,0 -4,4 -4,-4 z"
         id="path4433"
         sodipodi:nodetypes="cccc" />
    </g>
    <path
       sodipodi:nodetypes="cccc"
       id="path4437"
       d="m 20,950.36218 8,0 -4,-4 -4,4 z"
       style="fill:#181818;fill-opacity:1;stroke:none" />
    <path
       style="fill:#0c0c0c;fill-opacity:1;stroke:none"
       d="m 20,949.36218 8,0 -4,-4 -4,4 z"
       id="path4439"
       sodipodi:nodetypes="cccc" />
    <g
       transform="matrix(1,0,0,-1,17,2069.7243)"
       id="arrow-up">
      <rect
         style="opacity:0.7;fill:#000000;fill-opacity:0.00392157;stroke:none"
         id="rect5225"
         width="12"
         height="8"
         x="18"
         y="1029.3622" />
      <path
         style="fill:#181818;fill-opacity:1;stroke:none"
         d="m 20,1029.3621 8,0 -4,4 -4,-4 z"
         id="path5227"
         sodipodi:nodetypes="cccc" />
      <path
         sodipodi:nodetypes="cccc"
         id="path5229"
         d="m 20,1030.3621 8,0 -4,4 -4,-4 z"
         style="fill:#0c0c0c;fill-opacity:1;stroke:none" />
    </g>
    <g
       transform="matrix(0,-1,1,0,-969.3622,1063.3622)"
       id="arrow-right">
      <rect
         style="opacity:0.7;fill:#000000;fill-opacity:0.00392157;stroke:none"
         id="rect5233"
         width="12"
         height="8"
         x="18"
         y="1029.3622" />
      <path
         style="fill:#181818;fill-opacity:1;stroke:none"
         d="m 19.00002,1029.3622 8,0 -4,4 -4,-4 z"
         id="path5235"
         sodipodi:nodetypes="cccc" />
      <path
         sodipodi:nodetypes="cccc"
         id="path5237"
         d="m 20,1029.3622 8,0 -4,4 -4,-4 z"
         style="fill:#0c0c0c;fill-opacity:1;stroke:none" />
    </g>
    <g
       id="arrow-left"
       transform="matrix(0,-1,-1,0,1087.3622,1063.3622)">
      <rect
         y="1029.3622"
         x="18"
         height="8"
         width="12"
         id="rect5241"
         style="opacity:0.7;fill:#000000;fill-opacity:0.00392157;stroke:none" />
      <path
         sodipodi:nodetypes="cccc"
         id="path5243"
         d="m 19.00002,1029.3622 8,0 -4,4 -4,-4 z"
         style="fill:#181818;fill-opacity:1;stroke:none" />
      <path
         style="fill:#0c0c0c;fill-opacity:1;stroke:none"
         d="m 20,1029.3622 8,0 -4,4 -4,-4 z"
         id="path5245"
         sodipodi:nodetypes="cccc" />
    </g>
    <g
       id="mouseover-slider-center">
      <path
         id="path5202"
         d="m 22,972.36218 0,3 4,0 0,-3 -4,0 z"
         style="fill:#3c3c3c;fill-opacity:1;stroke:none" />
    </g>
    <g
       id="mouseover-slider-right">
      <path
         transform="translate(0,937.36218)"
         id="path3910"
         d="M 26 38 L 29 38 L 29 35 L 26 35 L 26 38 z "
         style="fill:#3c3c3c;fill-opacity:1;stroke:none" />
      <path
         style="fill:#464646;fill-opacity:1;stroke:none"
         d="m 29,972.36218 -1,0 0,3 1,0 0,-3 z"
         id="path5200" />
      <rect
         style="fill:#000000;fill-opacity:0.00392157;stroke:none"
         id="rect3758"
         width="0.99999994"
         height="1.0624998"
         x="29"
         y="973.29968" />
    </g>
    <g
       id="mouseover-slider-bottomright">
      <path
         transform="translate(0,937.36218)"
         id="path3903"
         d="M 26 41 L 27 41 C 27.277 41 27.81925 40.18075 28 40 C 28.18075 39.81925 29 39.277 29 39 L 28 38 L 26 38 L 26 41 z "
         style="fill:#3c3c3c;fill-opacity:1;stroke:none" />
      <path
         transform="translate(0,937.36218)"
         id="path3898"
         d="M 26 41 L 27 41 C 28.108 41 29 40.108 29 39 L 29 38 L 28 38 L 28 39 C 28 39.277 27.8995 39.538 27.71875 39.71875 C 27.538 39.8995 27.277 40 27 40 L 26 40 L 26 41 z "
         style="fill:#464646;fill-opacity:1;stroke:none" />
      <path
         transform="translate(0,937.36218)"
         id="path3915"
         d="M 26 42 L 30 42 L 30 41 L 26 41 L 26 42 z "
         style="fill:#000000;fill-opacity:0.00392157;stroke:none" />
    </g>
    <g
       id="mouseover-slider-bottom">
      <path
         id="path5214"
         d="m 22,975.36218 0,3 4,0 0,-3 -4,0 z"
         style="fill:#3c3c3c;fill-opacity:1;stroke:none" />
      <path
         id="path5212"
         d="m 22,977.36218 0,1 4,0 0,-1 -4,0 z"
         style="fill:#464646;fill-opacity:1;stroke:none" />
      <path
         id="rect3762"
         d="m 22,978.36218 0,1 4,0 0,-1 -4,0 z"
         style="fill:#000000;fill-opacity:0.00392157;stroke:none" />
    </g>
    <g
       id="mouseover-slider-top">
      <path
         id="path5208"
         d="m 22,969.42468 0,2.9375 4,0 0,-3 -3.878788,0 c -0.01679,0 -0.09546,0.0565 -0.121212,0.0625 z"
         style="fill:#3c3c3c;fill-opacity:1;stroke:none" />
      <path
         id="path5206"
         d="m 22,969.36218 0,1 4,0 0,-1 -4,0 z"
         style="fill:#464646;fill-opacity:1;stroke:none" />
      <rect
         y="968.29968"
         x="22"
         height="1.0624998"
         width="3.9999998"
         id="rect3760"
         style="fill:#000000;fill-opacity:0.00392157;stroke:none" />
    </g>
    <g
       id="mouseover-slider-topright">
      <path
         transform="translate(0,937.36218)"
         id="path3888"
         d="M 26 35 L 28 35 L 29 34 C 29 33.723 28.18075 33.18075 28 33 C 27.81925 32.81925 27.277 32 27 32 L 26 32 L 26 35 z "
         style="fill:#3c3c3c;fill-opacity:1;stroke:none" />
      <path
         transform="translate(0,937.36218)"
         id="path3883"
         d="M 26 33 L 27 33 C 27.277 33 27.538 33.1005 27.71875 33.28125 C 27.8995 33.462 28 33.723 28 34 L 28 35 L 29 35 L 29 34 C 29 32.892 28.108 32 27 32 L 26 32 L 26 33 z "
         style="fill:#464646;fill-opacity:1;stroke:none" />
      <rect
         y="968.36218"
         x="29.125"
         height="1.8437521"
         width="0.87499994"
         id="rect3782"
         style="fill:#000000;fill-opacity:0.00392157;stroke:none" />
    </g>
    <g
       id="mouseover-slider-left">
      <path
         style="fill:#3c3c3c;fill-opacity:1;stroke:none"
         d="m 22,975.36218 -3,0 0,-3 3,0 0,3 z"
         id="path3917" />
      <path
         id="path3919"
         d="m 19,972.36218 1,0 0,3 -1,0 0,-3 z"
         style="fill:#464646;fill-opacity:1;stroke:none" />
      <rect
         transform="scale(-1,1)"
         y="973.29968"
         x="-19"
         height="1.0624998"
         width="0.99999994"
         id="rect3921"
         style="fill:#000000;fill-opacity:0.00392157;stroke:none" />
    </g>
    <g
       id="mouseover-slider-bottomleft">
      <path
         style="fill:#3c3c3c;fill-opacity:1;stroke:none"
         d="m 22,978.36218 -1,0 c -0.277,0 -0.81925,-0.81925 -1,-1 -0.18075,-0.18075 -1,-0.723 -1,-1 l 1,-1 2,0 0,3 z"
         id="path3923" />
      <path
         style="fill:#464646;fill-opacity:1;stroke:none"
         d="m 22,978.36218 -1,0 c -1.108,0 -2,-0.892 -2,-2 l 0,-1 1,0 0,1 c 0,0.277 0.1005,0.538 0.28125,0.71875 0.18075,0.18075 0.44175,0.28125 0.71875,0.28125 l 1,0 0,1 z"
         id="path3925" />
      <path
         style="fill:#000000;fill-opacity:0.00392157;stroke:none"
         d="m 22,979.36218 -4,0 0,-1 4,0 0,1 z"
         id="path3927" />
    </g>
    <g
       id="mouseover-slider-topleft">
      <path
         style="fill:#3c3c3c;fill-opacity:1;stroke:none"
         d="m 22,972.36218 -2,0 -1,-1 c 0,-0.277 0.81925,-0.81925 1,-1 0.18075,-0.18075 0.723,-1 1,-1 l 1,0 0,3 z"
         id="path3929" />
      <path
         style="fill:#464646;fill-opacity:1;stroke:none"
         d="m 22,970.36218 -1,0 c -0.277,0 -0.538,0.1005 -0.71875,0.28125 C 20.1005,970.82418 20,971.08518 20,971.36218 l 0,1 -1,0 0,-1 c 0,-1.108 0.892,-2 2,-2 l 1,0 0,1 z"
         id="path3931" />
      <rect
         transform="scale(-1,1)"
         style="fill:#000000;fill-opacity:0.00392157;stroke:none"
         id="rect3933"
         width="0.87499994"
         height="1.8437521"
         x="-18.875"
         y="968.36218" />
    </g>
    <g
       transform="translate(-3,-12)"
       id="slider-center">
      <path
         style="fill:#262626;fill-opacity:1;stroke:none"
         d="m 22,972.36218 0,3 4,0 0,-3 -4,0 z"
         id="path4396" />
    </g>
    <g
       transform="translate(-3,-12)"
       id="slider-right">
      <path
         style="fill:#262626;fill-opacity:1;stroke:none"
         d="m 26,38 3,0 0,-3 -3,0 0,3 z"
         id="path4400"
         transform="translate(0,937.36218)" />
      <path
         id="path4402"
         d="m 29,972.36218 -1,0 0,3 1,0 0,-3 z"
         style="fill:#2c2c2c;fill-opacity:1;stroke:none" />
      <rect
         y="973.29968"
         x="29"
         height="1.0624998"
         width="0.99999994"
         id="rect4404"
         style="fill:#000000;fill-opacity:0.00392157;stroke:none" />
    </g>
    <g
       transform="translate(-3,-12)"
       id="slider-bottomright">
      <path
         style="fill:#262626;fill-opacity:1;stroke:none"
         d="m 26,41 1,0 c 0.277,0 0.81925,-0.81925 1,-1 0.18075,-0.18075 1,-0.723 1,-1 l -1,-1 -2,0 0,3 z"
         id="path4408"
         transform="translate(0,937.36218)" />
      <path
         style="fill:#2c2c2c;fill-opacity:1;stroke:none"
         d="m 26,41 1,0 c 1.108,0 2,-0.892 2,-2 l 0,-1 -1,0 0,1 c 0,0.277 -0.1005,0.538 -0.28125,0.71875 C 27.538,39.8995 27.277,40 27,40 l -1,0 0,1 z"
         id="path4410"
         transform="translate(0,937.36218)" />
      <path
         style="fill:#000000;fill-opacity:0.00392157;stroke:none"
         d="m 26,42 4,0 0,-1 -4,0 0,1 z"
         id="path4412"
         transform="translate(0,937.36218)" />
    </g>
    <g
       transform="translate(-3,-12)"
       id="slider-bottom">
      <path
         style="fill:#262626;fill-opacity:1;stroke:none"
         d="m 22,975.36218 0,3 4,0 0,-3 -4,0 z"
         id="path4416" />
      <path
         style="fill:#2c2c2c;fill-opacity:1;stroke:none"
         d="m 22,977.36218 0,1 4,0 0,-1 -4,0 z"
         id="path4418" />
      <path
         style="fill:#000000;fill-opacity:0.00392157;stroke:none"
         d="m 22,978.36218 0,1 4,0 0,-1 -4,0 z"
         id="path4420" />
    </g>
    <g
       transform="translate(-3,-12)"
       id="slider-top">
      <path
         style="fill:#262626;fill-opacity:1;stroke:none"
         d="m 22,969.42468 0,2.9375 4,0 0,-3 -3.878788,0 c -0.01679,0 -0.09546,0.0565 -0.121212,0.0625 z"
         id="path4424" />
      <path
         style="fill:#2c2c2c;fill-opacity:1;stroke:none"
         d="m 22,969.36218 0,1 4,0 0,-1 -4,0 z"
         id="path4426" />
      <rect
         style="fill:#000000;fill-opacity:0.00392157;stroke:none"
         id="rect4428"
         width="3.9999998"
         height="1.0624998"
         x="22"
         y="968.29968" />
    </g>
    <g
       transform="translate(-3,-12)"
       id="slider-topright">
      <path
         style="fill:#262626;fill-opacity:1;stroke:none"
         d="m 26,35 2,0 1,-1 c 0,-0.277 -0.81925,-0.81925 -1,-1 -0.18075,-0.18075 -0.723,-1 -1,-1 l -1,0 0,3 z"
         id="path4432"
         transform="translate(0,937.36218)" />
      <path
         style="fill:#2c2c2c;fill-opacity:1;stroke:none"
         d="m 26,33 1,0 c 0.277,0 0.538,0.1005 0.71875,0.28125 C 27.8995,33.462 28,33.723 28,34 l 0,1 1,0 0,-1 c 0,-1.108 -0.892,-2 -2,-2 l -1,0 0,1 z"
         id="path4434"
         transform="translate(0,937.36218)" />
      <rect
         style="fill:#000000;fill-opacity:0.00392157;stroke:none"
         id="rect4436"
         width="0.87499994"
         height="1.8437521"
         x="29.125"
         y="968.36218" />
    </g>
    <g
       transform="translate(-3,-12)"
       id="slider-left">
      <path
         id="path4440"
         d="m 22,975.36218 -3,0 0,-3 3,0 0,3 z"
         style="fill:#262626;fill-opacity:1;stroke:none" />
      <path
         style="fill:#2c2c2c;fill-opacity:1;stroke:none"
         d="m 19,972.36218 1,0 0,3 -1,0 0,-3 z"
         id="path4442" />
      <rect
         style="fill:#000000;fill-opacity:0.00392157;stroke:none"
         id="rect4444"
         width="0.99999994"
         height="1.0624998"
         x="-19"
         y="973.29968"
         transform="scale(-1,1)" />
    </g>
    <g
       transform="translate(-3,-12)"
       id="slider-bottomleft">
      <path
         id="path4448"
         d="m 22,978.36218 -1,0 c -0.277,0 -0.81925,-0.81925 -1,-1 -0.18075,-0.18075 -1,-0.723 -1,-1 l 1,-1 2,0 0,3 z"
         style="fill:#262626;fill-opacity:1;stroke:none" />
      <path
         id="path4450"
         d="m 22,978.36218 -1,0 c -1.108,0 -2,-0.892 -2,-2 l 0,-1 1,0 0,1 c 0,0.277 0.1005,0.538 0.28125,0.71875 0.18075,0.18075 0.44175,0.28125 0.71875,0.28125 l 1,0 0,1 z"
         style="fill:#2c2c2c;fill-opacity:1;stroke:none" />
      <path
         id="path4452"
         d="m 22,979.36218 -4,0 0,-1 4,0 0,1 z"
         style="fill:#000000;fill-opacity:0.00392157;stroke:none" />
    </g>
    <g
       transform="translate(-3,-12)"
       id="slider-topleft">
      <path
         id="path4456"
         d="m 22,972.36218 -2,0 -1,-1 c 0,-0.277 0.81925,-0.81925 1,-1 0.18075,-0.18075 0.723,-1 1,-1 l 1,0 0,3 z"
         style="fill:#262626;fill-opacity:1;stroke:none" />
      <path
         id="path4458"
         d="m 22,970.36218 -1,0 c -0.277,0 -0.538,0.1005 -0.71875,0.28125 C 20.1005,970.82418 20,971.08518 20,971.36218 l 0,1 -1,0 0,-1 c 0,-1.108 0.892,-2 2,-2 l 1,0 0,1 z"
         style="fill:#2c2c2c;fill-opacity:1;stroke:none" />
      <rect
         y="968.36218"
         x="-18.875"
         height="1.8437521"
         width="0.87499994"
         id="rect4460"
         style="fill:#000000;fill-opacity:0.00392157;stroke:none"
         transform="scale(-1,1)" />
    </g>
    <g
       id="sunken-slider-center"
       transform="translate(0,12)">
      <path
         style="fill:#3c3c3c;fill-opacity:1;stroke:none"
         d="m 22,972.36218 0,3 4,0 0,-3 -4,0 z"
         id="path5814" />
    </g>
    <g
       id="sunken-slider-right"
       transform="translate(0,12)">
      <path
         style="fill:#3c3c3c;fill-opacity:1;stroke:none"
         d="m 26,38 3,0 0,-3 -3,0 0,3 z"
         id="path5818"
         transform="translate(0,937.36218)" />
      <path
         id="path5820"
         d="m 29,972.36218 -1,0 0,3 1,0 0,-3 z"
         style="fill:#464646;fill-opacity:1;stroke:none" />
      <rect
         y="973.29968"
         x="29"
         height="1.0624998"
         width="0.99999994"
         id="rect5822"
         style="fill:#000000;fill-opacity:0.00392157;stroke:none" />
    </g>
    <g
       id="sunken-slider-bottomright"
       transform="translate(0,12)">
      <path
         style="fill:#3c3c3c;fill-opacity:1;stroke:none"
         d="m 26,41 1,0 c 0.277,0 0.81925,-0.81925 1,-1 0.18075,-0.18075 1,-0.723 1,-1 l -1,-1 -2,0 0,3 z"
         id="path5826"
         transform="translate(0,937.36218)" />
      <path
         style="fill:#464646;fill-opacity:1;stroke:none"
         d="m 26,41 1,0 c 1.108,0 2,-0.892 2,-2 l 0,-1 -1,0 0,1 c 0,0.277 -0.1005,0.538 -0.28125,0.71875 C 27.538,39.8995 27.277,40 27,40 l -1,0 0,1 z"
         id="path5828"
         transform="translate(0,937.36218)" />
      <path
         style="fill:#000000;fill-opacity:0.00392157;stroke:none"
         d="m 26,42 4,0 0,-1 -4,0 0,1 z"
         id="path5830"
         transform="translate(0,937.36218)" />
    </g>
    <g
       id="sunken-slider-bottom"
       transform="translate(0,12)">
      <path
         style="fill:#3c3c3c;fill-opacity:1;stroke:none"
         d="m 22,975.36218 0,3 4,0 0,-3 -4,0 z"
         id="path5834" />
      <path
         style="fill:#464646;fill-opacity:1;stroke:none"
         d="m 22,977.36218 0,1 4,0 0,-1 -4,0 z"
         id="path5836" />
      <path
         style="fill:#000000;fill-opacity:0.00392157;stroke:none"
         d="m 22,978.36218 0,1 4,0 0,-1 -4,0 z"
         id="path5838" />
    </g>
    <g
       id="sunken-slider-top"
       transform="translate(0,12)">
      <path
         style="fill:#3c3c3c;fill-opacity:1;stroke:none"
         d="m 22,969.42468 0,2.9375 4,0 0,-3 -3.878788,0 c -0.01679,0 -0.09546,0.0565 -0.121212,0.0625 z"
         id="path5842" />
      <path
         style="fill:#464646;fill-opacity:1;stroke:none"
         d="m 22,969.36218 0,1 4,0 0,-1 -4,0 z"
         id="path5844" />
      <rect
         style="fill:#000000;fill-opacity:0.00392157;stroke:none"
         id="rect5846"
         width="3.9999998"
         height="1.0624998"
         x="22"
         y="968.29968" />
    </g>
    <g
       id="sunken-slider-topright"
       transform="translate(0,12)">
      <path
         style="fill:#3c3c3c;fill-opacity:1;stroke:none"
         d="m 26,35 2,0 1,-1 c 0,-0.277 -0.81925,-0.81925 -1,-1 -0.18075,-0.18075 -0.723,-1 -1,-1 l -1,0 0,3 z"
         id="path5850"
         transform="translate(0,937.36218)" />
      <path
         style="fill:#464646;fill-opacity:1;stroke:none"
         d="m 26,33 1,0 c 0.277,0 0.538,0.1005 0.71875,0.28125 C 27.8995,33.462 28,33.723 28,34 l 0,1 1,0 0,-1 c 0,-1.108 -0.892,-2 -2,-2 l -1,0 0,1 z"
         id="path5852"
         transform="translate(0,937.36218)" />
      <rect
         style="fill:#000000;fill-opacity:0.00392157;stroke:none"
         id="rect5854"
         width="0.87499994"
         height="1.8437521"
         x="29.125"
         y="968.36218" />
    </g>
    <g
       id="sunken-slider-left"
       transform="translate(0,12)">
      <path
         id="path5858"
         d="m 22,975.36218 -3,0 0,-3 3,0 0,3 z"
         style="fill:#3c3c3c;fill-opacity:1;stroke:none" />
      <path
         style="fill:#464646;fill-opacity:1;stroke:none"
         d="m 19,972.36218 1,0 0,3 -1,0 0,-3 z"
         id="path5860" />
      <rect
         style="fill:#000000;fill-opacity:0.00392157;stroke:none"
         id="rect5862"
         width="0.99999994"
         height="1.0624998"
         x="-19"
         y="973.29968"
         transform="scale(-1,1)" />
    </g>
    <g
       id="sunken-slider-bottomleft"
       transform="translate(0,12)">
      <path
         id="path5866"
         d="m 22,978.36218 -1,0 c -0.277,0 -0.81925,-0.81925 -1,-1 -0.18075,-0.18075 -1,-0.723 -1,-1 l 1,-1 2,0 0,3 z"
         style="fill:#3c3c3c;fill-opacity:1;stroke:none" />
      <path
         id="path5868"
         d="m 22,978.36218 -1,0 c -1.108,0 -2,-0.892 -2,-2 l 0,-1 1,0 0,1 c 0,0.277 0.1005,0.538 0.28125,0.71875 0.18075,0.18075 0.44175,0.28125 0.71875,0.28125 l 1,0 0,1 z"
         style="fill:#464646;fill-opacity:1;stroke:none" />
      <path
         id="path5870"
         d="m 22,979.36218 -4,0 0,-1 4,0 0,1 z"
         style="fill:#000000;fill-opacity:0.00392157;stroke:none" />
    </g>
    <g
       id="sunken-slider-topleft"
       transform="translate(0,12)">
      <path
         id="path5874"
         d="m 22,972.36218 -2,0 -1,-1 c 0,-0.277 0.81925,-0.81925 1,-1 0.18075,-0.18075 0.723,-1 1,-1 l 1,0 0,3 z"
         style="fill:#3c3c3c;fill-opacity:1;stroke:none" />
      <path
         id="path5876"
         d="m 22,970.36218 -1,0 c -0.277,0 -0.538,0.1005 -0.71875,0.28125 C 20.1005,970.82418 20,971.08518 20,971.36218 l 0,1 -1,0 0,-1 c 0,-1.108 0.892,-2 2,-2 l 1,0 0,1 z"
         style="fill:#464646;fill-opacity:1;stroke:none" />
      <rect
         y="968.36218"
         x="-18.875"
         height="1.8437521"
         width="0.87499994"
         id="rect5878"
         style="fill:#000000;fill-opacity:0.00392157;stroke:none"
         transform="scale(-1,1)" />
    </g>
    <g
       id="background-vertical-top">
      <g
         transform="matrix(-1,0,0,-1,49,2044.7244)"
         id="g6448">
        <path
           style="fill:#151515;fill-opacity:1;stroke:none"
           d="m 23,1025.3622 0,3 4,0 0,-3 -4,0 z"
           id="path4227" />
        <path
           style="fill:#0c0c0c;fill-opacity:1;stroke:none"
           d="m 23,1024.3622 0,3 4,0 0,-3 -4,0 z"
           id="path4229" />
      </g>
      <rect
         style="fill:#2c2c2c;fill-opacity:0.00392157;stroke:none"
         id="rect6398"
         width="2"
         height="14.000008"
         x="23"
         y="1002.3622" />
    </g>
    <g
       id="background-vertical-topleft">
      <g
         id="g6440"
         transform="matrix(-1,0,0,-1,48,2044.7244)">
        <path
           sodipodi:nodetypes="cccccc"
           style="fill:#151515;fill-opacity:1;stroke:none"
           d="m 26,87 0,4 1,0 c 1.662,0 3,-1.338 3,-3 l 0,-1 -4,0 z"
           id="path4221"
           transform="translate(0,937.36218)" />
        <path
           sodipodi:nodetypes="cccccc"
           style="fill:#0c0c0c;fill-opacity:1;stroke:none"
           d="m 27,90 c 1.108,0 2,-0.892 2,-2 l 0,-1 -3,0 0,3 1,0 z"
           id="path4223"
           transform="translate(0,937.36218)" />
      </g>
      <rect
         y="1002.3622"
         x="18"
         height="14.000008"
         width="2"
         id="rect6400"
         style="fill:#2c2c2c;fill-opacity:0.00392157;stroke:none" />
    </g>
    <g
       id="background-vertical-topright">
      <g
         transform="matrix(1,0,0,-1,0,2044.7244)"
         id="g6456">
        <path
           transform="translate(0,937.36218)"
           id="path4233"
           d="m 26,87 0,4 1,0 c 1.662,0 3,-1.338 3,-3 l 0,-1 -4,0 z"
           style="fill:#151515;fill-opacity:1;stroke:none"
           sodipodi:nodetypes="cccccc" />
        <path
           transform="translate(0,937.36218)"
           id="path4235"
           d="m 27,90 c 1.108,0 2,-0.892 2,-2 l 0,-1 -3,0 0,3 1,0 z"
           style="fill:#0c0c0c;fill-opacity:1;stroke:none"
           sodipodi:nodetypes="cccccc" />
      </g>
      <rect
         style="fill:#2c2c2c;fill-opacity:0.00392157;stroke:none"
         id="rect6402"
         width="2"
         height="14.000008"
         x="28"
         y="1002.3622" />
    </g>
    <g
       id="background-vertical-bottom">
      <g
         id="g6424"
         transform="translate(-1,0)">
        <path
           id="path3368"
           d="m 23,1025.3622 0,3 4,0 0,-3 -4,0 z"
           style="fill:#151515;fill-opacity:1;stroke:none" />
        <path
           id="path3371"
           d="m 23,1024.3622 0,3 4,0 0,-3 -4,0 z"
           style="fill:#0c0c0c;fill-opacity:1;stroke:none" />
      </g>
      <rect
         y="1028.14"
         x="23"
         height="13.222213"
         width="2"
         id="rect6404"
         style="fill:#2c2c2c;fill-opacity:0.00392157;stroke:none" />
    </g>
    <g
       transform="matrix(1,0,0,0.93518503,0,66.588449)"
       id="background-vertical-bottomleft">
      <g
         id="g6432"
         transform="matrix(-1,0,0,1,48,0)">
        <path
           sodipodi:nodetypes="cccccc"
           style="fill:#151515;fill-opacity:1;stroke:none"
           d="m 26,86.792079 0,4.277228 1,0 c 1.662,0 3,-1.338 3,-3 l 0,-1.277228 -4,0 z"
           id="path4199"
           transform="translate(0,937.36218)" />
        <path
           sodipodi:nodetypes="cccccc"
           style="fill:#0c0c0c;fill-opacity:1;stroke:none"
           d="m 27,90 c 1.108,0 2,-0.892 2,-2 l 0,-1.207921 -3,0 L 26,90 l 1,0 z"
           id="path4201"
           transform="translate(0,937.36218)" />
      </g>
      <rect
         style="fill:#2c2c2c;fill-opacity:0.00392157;stroke:none"
         id="rect6406"
         width="2"
         height="13.999992"
         x="18"
         y="1028.3622" />
    </g>
    <g
       id="background-vertical-bottomright">
      <g
         id="g6416">
        <path
           transform="translate(0,937.36218)"
           id="path4183"
           d="m 26,87 0,4 1,0 c 1.662,0 3,-1.338 3,-3 l 0,-1 -4,0 z"
           style="fill:#151515;fill-opacity:1;stroke:none"
           sodipodi:nodetypes="cccccc" />
        <path
           transform="translate(0,937.36218)"
           id="path4173"
           d="m 27,90 c 1.108,0 2,-0.892 2,-2 l 0,-1 -3,0 0,3 1,0 z"
           style="fill:#0c0c0c;fill-opacity:1;stroke:none"
           sodipodi:nodetypes="cccccc" />
      </g>
      <rect
         y="1028.14"
         x="28"
         height="13.222213"
         width="2"
         id="rect6408"
         style="fill:#2c2c2c;fill-opacity:0.00392157;stroke:none" />
    </g>
    <g
       transform="translate(0,12.99998)"
       id="mouseover-arrow-down">
      <rect
         style="opacity:0.7;fill:#000000;fill-opacity:0.00392157;stroke:none"
         id="rect6460"
         width="12"
         height="8"
         x="18"
         y="1029.3622" />
      <path
         style="fill:#181818;fill-opacity:1;stroke:none"
         d="m 20,1030.3622 8,0 -4,4 -4,-4 z"
         id="path6462"
         sodipodi:nodetypes="cccc" />
      <path
         sodipodi:nodetypes="cccc"
         id="path6464"
         d="m 20,1029.3622 8,0 -4,4 -4,-4 z"
         style="fill:#0c0c0c;fill-opacity:1;stroke:none" />
    </g>
    <g
       id="mouseover-arrow-up"
       transform="matrix(1,0,0,-1,0,2069.7243)">
      <rect
         y="1029.3622"
         x="18"
         height="8"
         width="12"
         id="rect6476"
         style="opacity:0.7;fill:#000000;fill-opacity:0.00392157;stroke:none" />
      <path
         sodipodi:nodetypes="cccc"
         id="path6478"
         d="m 20,1029.3621 8,0 -4,4 -4,-4 z"
         style="fill:#181818;fill-opacity:1;stroke:none" />
      <path
         style="fill:#0c0c0c;fill-opacity:1;stroke:none"
         d="m 20,1030.3621 8,0 -4,4 -4,-4 z"
         id="path6480"
         sodipodi:nodetypes="cccc" />
    </g>
    <g
       id="mouseover-arrow-right"
       transform="matrix(0,-1,1,0,-969.3622,1051.3622)">
      <rect
         y="1029.3622"
         x="18"
         height="8"
         width="12"
         id="rect6484"
         style="opacity:0.7;fill:#000000;fill-opacity:0.00392157;stroke:none" />
      <path
         sodipodi:nodetypes="cccc"
         id="path6486"
         d="m 19.00002,1029.3622 8,0 -4,4 -4,-4 z"
         style="fill:#181818;fill-opacity:1;stroke:none" />
      <path
         style="fill:#0c0c0c;fill-opacity:1;stroke:none"
         d="m 20,1029.3622 8,0 -4,4 -4,-4 z"
         id="path6488"
         sodipodi:nodetypes="cccc" />
    </g>
    <g
       transform="matrix(0,-1,-1,0,1087.3622,1051.3622)"
       id="mouseover-arrow-left">
      <rect
         style="opacity:0.7;fill:#000000;fill-opacity:0.00392157;stroke:none"
         id="rect6492"
         width="12"
         height="8"
         x="18"
         y="1029.3622" />
      <path
         style="fill:#181818;fill-opacity:1;stroke:none"
         d="m 19.00002,1029.3622 8,0 -4,4 -4,-4 z"
         id="path6494"
         sodipodi:nodetypes="cccc" />
      <path
         sodipodi:nodetypes="cccc"
         id="path6496"
         d="m 20,1029.3622 8,0 -4,4 -4,-4 z"
         style="fill:#0c0c0c;fill-opacity:1;stroke:none" />
    </g>
    <g
       transform="matrix(0,-1,1,0,-967.36222,1030.3622)"
       id="background-horizontal-top">
      <path
         id="path6502"
         d="m 26,1020.3622 0,4 4,0 0,-4 -4,0 z"
         style="fill:#151515;fill-opacity:1;stroke:none" />
      <path
         id="path6504"
         d="m 26,1024.3622 3,0 0,-4 -3,0 0,4 z"
         style="fill:#0c0c0c;fill-opacity:1;stroke:none" />
    </g>
    <g
       transform="matrix(0,-1,1,0,-967.36222,1030.3622)"
       id="background-horizontal-bottom">
      <path
         id="path6508"
         d="m 19,1020.3622 -1,0 0,4 1,0 0,-4 z"
         style="fill:#151515;fill-opacity:1;stroke:none" />
      <path
         id="path6510"
         d="m 22,1020.3622 -3,0 0,4 3,0 0,-4 z"
         style="fill:#0c0c0c;fill-opacity:1;stroke:none" />
    </g>
    <g
       transform="matrix(0,-1,1,0,-967.36222,1030.3622)"
       id="background-horizontal-center">
      <path
         id="path6514"
         d="m 22,1020.3622 0,4 4,0 0,-4 -4,0 z"
         style="fill:#0c0c0c;fill-opacity:1;stroke:none" />
    </g>
    <g
       transform="matrix(0,-1,1,0,-967.36222,1030.3622)"
       id="background-horizontal-left">
      <g
         id="g6518"
         transform="matrix(-1,0,0,-1,49,2044.7244)">
        <path
           id="path6520"
           d="m 23,1025.3622 0,3 4,0 0,-3 -4,0 z"
           style="fill:#151515;fill-opacity:1;stroke:none" />
        <path
           id="path6522"
           d="m 23,1024.3622 0,3 4,0 0,-3 -4,0 z"
           style="fill:#0c0c0c;fill-opacity:1;stroke:none" />
      </g>
      <rect
         y="1002.3622"
         x="23"
         height="14.000008"
         width="2"
         id="rect6524"
         style="fill:#2c2c2c;fill-opacity:0.00392157;stroke:none" />
    </g>
    <g
       transform="matrix(0,-1,1,0,-967.36222,1030.3622)"
       id="background-horizontal-bottomleft">
      <g
         transform="matrix(-1,0,0,-1,48,2044.7244)"
         id="g6528">
        <path
           transform="translate(0,937.36218)"
           id="path6530"
           d="m 26,87 0,4 1,0 c 1.662,0 3,-1.338 3,-3 l 0,-1 -4,0 z"
           style="fill:#151515;fill-opacity:1;stroke:none"
           sodipodi:nodetypes="cccccc" />
        <path
           transform="translate(0,937.36218)"
           id="path6532"
           d="m 27,90 c 1.108,0 2,-0.892 2,-2 l 0,-1 -3,0 0,3 1,0 z"
           style="fill:#0c0c0c;fill-opacity:1;stroke:none"
           sodipodi:nodetypes="cccccc" />
      </g>
      <rect
         style="fill:#2c2c2c;fill-opacity:0.00392157;stroke:none"
         id="rect6534"
         width="2"
         height="14.000008"
         x="18"
         y="1002.3622" />
    </g>
    <g
       transform="matrix(0,-1,1,0,-967.36222,1030.3622)"
       id="background-horizontal-topleft">
      <g
         id="g6538"
         transform="matrix(1,0,0,-1,0,2044.7244)">
        <path
           sodipodi:nodetypes="cccccc"
           style="fill:#151515;fill-opacity:1;stroke:none"
           d="m 26,87 0,4 1,0 c 1.662,0 3,-1.338 3,-3 l 0,-1 -4,0 z"
           id="path6540"
           transform="translate(0,937.36218)" />
        <path
           sodipodi:nodetypes="cccccc"
           style="fill:#0c0c0c;fill-opacity:1;stroke:none"
           d="m 27,90 c 1.108,0 2,-0.892 2,-2 l 0,-1 -3,0 0,3 1,0 z"
           id="path6542"
           transform="translate(0,937.36218)" />
      </g>
      <rect
         y="1002.3622"
         x="28"
         height="14.000008"
         width="2"
         id="rect6544"
         style="fill:#2c2c2c;fill-opacity:0.00392157;stroke:none" />
    </g>
    <g
       transform="matrix(0,-1,1,0,-967.36222,1030.3622)"
       id="background-horizontal-right">
      <g
         transform="translate(-1,0)"
         id="g6548">
        <path
           style="fill:#151515;fill-opacity:1;stroke:none"
           d="m 23,1025.3622 0,3 4,0 0,-3 -4,0 z"
           id="path6550" />
        <path
           style="fill:#0c0c0c;fill-opacity:1;stroke:none"
           d="m 23,1024.3622 0,3 4,0 0,-3 -4,0 z"
           id="path6552" />
      </g>
      <rect
         style="fill:#2c2c2c;fill-opacity:0.00392157;stroke:none"
         id="rect6554"
         width="2"
         height="13.222213"
         x="23"
         y="1028.14" />
    </g>
    <g
       id="background-horizontal-bottomright"
       transform="matrix(0,-1,0.93518503,0,-900.77377,1030.3622)">
      <g
         transform="matrix(-1,0,0,1,48,0)"
         id="g6558">
        <path
           transform="translate(0,937.36218)"
           id="path6560"
           d="m 26,86.792079 0,4.277228 1,0 c 1.662,0 3,-1.338 3,-3 l 0,-1.277228 -4,0 z"
           style="fill:#151515;fill-opacity:1;stroke:none"
           sodipodi:nodetypes="cccccc" />
        <path
           transform="translate(0,937.36218)"
           id="path6562"
           d="m 27,90 c 1.108,0 2,-0.892 2,-2 l 0,-1.207921 -3,0 L 26,90 l 1,0 z"
           style="fill:#0c0c0c;fill-opacity:1;stroke:none"
           sodipodi:nodetypes="cccccc" />
      </g>
      <rect
         y="1028.3622"
         x="18"
         height="13.999992"
         width="2"
         id="rect6564"
         style="fill:#2c2c2c;fill-opacity:0.00392157;stroke:none" />
    </g>
    <g
       transform="matrix(0,-1,1,0,-967.36222,1030.3622)"
       id="background-horizontal-topright">
      <g
         id="g6568">
        <path
           sodipodi:nodetypes="cccccc"
           style="fill:#151515;fill-opacity:1;stroke:none"
           d="m 26,87 0,4 1,0 c 1.662,0 3,-1.338 3,-3 l 0,-1 -4,0 z"
           id="path6570"
           transform="translate(0,937.36218)" />
        <path
           sodipodi:nodetypes="cccccc"
           style="fill:#0c0c0c;fill-opacity:1;stroke:none"
           d="m 27,90 c 1.108,0 2,-0.892 2,-2 l 0,-1 -3,0 0,3 1,0 z"
           id="path6572"
           transform="translate(0,937.36218)" />
      </g>
      <rect
         style="fill:#2c2c2c;fill-opacity:0.00392157;stroke:none"
         id="rect6574"
         width="2"
         height="13.222213"
         x="28"
         y="1028.14" />
    </g>
  </g>
</svg>
