<?xml version="1.0" encoding="UTF-8" standalone="no"?>
<!-- Created with Inkscape (http://www.inkscape.org/) -->

<svg
   xmlns:dc="http://purl.org/dc/elements/1.1/"
   xmlns:cc="http://creativecommons.org/ns#"
   xmlns:rdf="http://www.w3.org/1999/02/22-rdf-syntax-ns#"
   xmlns:svg="http://www.w3.org/2000/svg"
   xmlns="http://www.w3.org/2000/svg"
   xmlns:xlink="http://www.w3.org/1999/xlink"
   xmlns:sodipodi="http://sodipodi.sourceforge.net/DTD/sodipodi-0.dtd"
   xmlns:inkscape="http://www.inkscape.org/namespaces/inkscape"
   width="100"
   height="150"
   id="svg2"
   version="1.1"
   inkscape:version="0.47 r22583"
   sodipodi:docname="background.svg"
   inkscape:export-filename="/home/anton/Teman/mockups/gree-hey.png"
   inkscape:export-xdpi="90"
   inkscape:export-ydpi="90">
  <sodipodi:namedview
     id="base"
     pagecolor="#ffffff"
     bordercolor="#666666"
     borderopacity="1.0"
     inkscape:pageopacity="0.0"
     inkscape:pageshadow="2"
     inkscape:zoom="5.656854"
     inkscape:cx="119.16477"
     inkscape:cy="61.137203"
     inkscape:document-units="px"
     inkscape:current-layer="layer1"
     showgrid="false"
     inkscape:window-width="1440"
     inkscape:window-height="854"
     inkscape:window-x="-1"
     inkscape:window-y="-5"
     inkscape:window-maximized="1">
    <inkscape:grid
       snapvisiblegridlinesonly="true"
       enabled="true"
       visible="true"
       empspacing="5"
       id="grid2816"
       type="xygrid" />
  </sodipodi:namedview>
  <defs
     id="defs4">
    <linearGradient
       id="linearGradient5432">
      <stop
         id="stop5434"
         offset="0"
         style="stop-color:#4c4c4c;stop-opacity:1;" />
      <stop
         id="stop5436"
         offset="1"
         style="stop-color:#222222;stop-opacity:1;" />
    </linearGradient>
    <linearGradient
       id="linearGradient4833">
      <stop
         id="stop4835"
         offset="0"
         style="stop-color:#1d1d1d;stop-opacity:1;" />
      <stop
         style="stop-color:#1a1a1a;stop-opacity:0.49803922;"
         offset="0.5"
         id="stop4841" />
      <stop
         id="stop4843"
         offset="0.75"
         style="stop-color:#1a1a1a;stop-opacity:0.24705882;" />
      <stop
         id="stop4837"
         offset="1"
         style="stop-color:#292929;stop-opacity:0.47058824;" />
    </linearGradient>
    <linearGradient
       id="linearGradient4783">
      <stop
         style="stop-color:#ffffff;stop-opacity:0;"
         offset="0"
         id="stop4785" />
      <stop
         id="stop4787"
         offset="0.5"
         style="stop-color:#ffffff;stop-opacity:0.39072847;" />
      <stop
         style="stop-color:#ffffff;stop-opacity:0;"
         offset="1"
         id="stop4789" />
    </linearGradient>
    <linearGradient
       id="linearGradient4769">
      <stop
         id="stop4771"
         offset="0"
         style="stop-color:#000000;stop-opacity:0;" />
      <stop
         style="stop-color:#000000;stop-opacity:0.29139072;"
         offset="0.5"
         id="stop4777" />
      <stop
         id="stop4773"
         offset="1"
         style="stop-color:#000000;stop-opacity:0;" />
    </linearGradient>
    <linearGradient
       id="linearGradient4459">
      <stop
         id="stop4461"
         offset="0"
         style="stop-color:#1e1e1e;stop-opacity:1;" />
      <stop
         id="stop4463"
         offset="1"
         style="stop-color:#1e1e1e;stop-opacity:1;" />
    </linearGradient>
    <linearGradient
       id="linearGradient4018">
      <stop
         id="stop4020"
         offset="0"
         style="stop-color:#000000;stop-opacity:1;" />
      <stop
         style="stop-color:#000000;stop-opacity:0.31125829;"
         offset="0.5"
         id="stop4377" />
      <stop
         id="stop4379"
         offset="0.75"
         style="stop-color:#000000;stop-opacity:0.08609272;" />
      <stop
         id="stop4022"
         offset="1"
         style="stop-color:#000000;stop-opacity:0;" />
    </linearGradient>
    <linearGradient
       id="linearGradient3955">
      <stop
         style="stop-color:#1d1d1d;stop-opacity:1;"
         offset="0"
         id="stop3957" />
      <stop
         style="stop-color:#070707;stop-opacity:0.32941177;"
         offset="1"
         id="stop3959" />
    </linearGradient>
    <linearGradient
       id="linearGradient3928">
      <stop
         id="stop3930"
         offset="0"
         style="stop-color:#ffffff;stop-opacity:0.01960784;" />
      <stop
         id="stop3932"
         offset="1"
         style="stop-color:#ffffff;stop-opacity:0.01960784;" />
    </linearGradient>
    <linearGradient
       id="linearGradient3913">
      <stop
         id="stop3915"
         offset="0"
         style="stop-color:#161616;stop-opacity:1;" />
      <stop
         id="stop3917"
         offset="1"
         style="stop-color:#0c0c0c;stop-opacity:1;" />
    </linearGradient>
    <linearGradient
       id="linearGradient3836">
      <stop
         id="stop3838"
         offset="0"
         style="stop-color:#292929;stop-opacity:1;" />
      <stop
         id="stop3840"
         offset="1"
         style="stop-color:#292929;stop-opacity:1;" />
    </linearGradient>
    <linearGradient
       id="linearGradient3799">
      <stop
         style="stop-color:#2a2a2a;stop-opacity:1;"
         offset="0"
         id="stop3801" />
      <stop
         style="stop-color:#202020;stop-opacity:1;"
         offset="1"
         id="stop3803" />
    </linearGradient>
    <linearGradient
       id="linearGradient3738">
      <stop
         id="stop3740"
         offset="0"
         style="stop-color:#000000;stop-opacity:0.25827813;" />
      <stop
         style="stop-color:#000000;stop-opacity:0.08609272;"
         offset="0.5"
         id="stop3746" />
      <stop
         id="stop3742"
         offset="1"
         style="stop-color:#000000;stop-opacity:0;" />
    </linearGradient>
    <linearGradient
       id="linearGradient3730">
      <stop
         id="stop3732"
         offset="0"
         style="stop-color:#565656;stop-opacity:0.36423841;" />
      <stop
         id="stop3734"
         offset="1"
         style="stop-color:#3d3d3d;stop-opacity:0;" />
    </linearGradient>
    <linearGradient
       id="linearGradient3720">
      <stop
         style="stop-color:#3d3d3d;stop-opacity:0.20529801;"
         offset="0"
         id="stop3722" />
      <stop
         style="stop-color:#3d3d3d;stop-opacity:0;"
         offset="1"
         id="stop3724" />
    </linearGradient>
    <linearGradient
       id="linearGradient3704">
      <stop
         id="stop3706"
         offset="0"
         style="stop-color:#3d3d3d;stop-opacity:0.23178808;" />
      <stop
         id="stop3708"
         offset="1"
         style="stop-color:#3d3d3d;stop-opacity:0;" />
    </linearGradient>
    <linearGradient
       id="linearGradient3684">
      <stop
         id="stop3686"
         offset="0"
         style="stop-color:#3f3f3f;stop-opacity:0.10596026;" />
      <stop
         id="stop3688"
         offset="1"
         style="stop-color:#3f3f3f;stop-opacity:0;" />
    </linearGradient>
    <linearGradient
       id="linearGradient3666">
      <stop
         id="stop3668"
         offset="0"
         style="stop-color:#1e1e1e;stop-opacity:1;" />
      <stop
         id="stop3670"
         offset="1"
         style="stop-color:#161616;stop-opacity:1;" />
    </linearGradient>
    <linearGradient
       id="linearGradient3631">
      <stop
         id="stop3633"
         offset="0"
         style="stop-color:#2a2a2a;stop-opacity:1;" />
      <stop
         id="stop3635"
         offset="1"
         style="stop-color:#202020;stop-opacity:1;" />
    </linearGradient>
    <linearGradient
       id="linearGradient3616">
      <stop
         style="stop-color:#111111;stop-opacity:1;"
         offset="0"
         id="stop3618" />
      <stop
         style="stop-color:#111111;stop-opacity:1;"
         offset="1"
         id="stop3620" />
    </linearGradient>
    <linearGradient
       id="linearGradient3594">
      <stop
         id="stop3596"
         offset="0"
         style="stop-color:#0f0f0f;stop-opacity:1;" />
      <stop
         id="stop3598"
         offset="1"
         style="stop-color:#161616;stop-opacity:1;" />
    </linearGradient>
    <inkscape:perspective
       id="perspective10"
       inkscape:persp3d-origin="372.04724 : 350.78739 : 1"
       inkscape:vp_z="744.09448 : 526.18109 : 1"
       inkscape:vp_y="0 : 1000 : 0"
       inkscape:vp_x="0 : 526.18109 : 1"
       sodipodi:type="inkscape:persp3d" />
    <linearGradient
       gradientUnits="userSpaceOnUse"
       y2="555"
       x2="770"
       y1="490"
       x1="770"
       id="linearGradient3710"
       xlink:href="#linearGradient3704"
       inkscape:collect="always" />
    <linearGradient
       gradientUnits="userSpaceOnUse"
       y2="556.875"
       x2="581"
       y1="557.9375"
       x1="581"
       id="linearGradient3718"
       xlink:href="#linearGradient3720"
       inkscape:collect="always" />
    <linearGradient
       y2="594"
       x2="256.5"
       y1="575"
       x1="256.5"
       gradientTransform="matrix(1,0,0,-1,-43,1171)"
       gradientUnits="userSpaceOnUse"
       id="linearGradient3991"
       xlink:href="#linearGradient3684"
       inkscape:collect="always" />
    <radialGradient
       gradientTransform="matrix(-2,0,0,-2,1755,1455)"
       gradientUnits="userSpaceOnUse"
       r="5"
       fy="485"
       fx="585"
       cy="485"
       cx="585"
       id="radialGradient4024"
       xlink:href="#linearGradient4018"
       inkscape:collect="always" />
    <radialGradient
       r="5"
       fy="485"
       fx="585"
       cy="485"
       cx="585"
       gradientTransform="matrix(-2,0,0,-2,1755,-37.362165)"
       gradientUnits="userSpaceOnUse"
       id="radialGradient4028"
       xlink:href="#linearGradient4018"
       inkscape:collect="always" />
    <linearGradient
       gradientTransform="translate(-1160,0)"
       gradientUnits="userSpaceOnUse"
       y2="972.36218"
       x2="585"
       y1="972.36218"
       x1="575"
       id="linearGradient4034"
       xlink:href="#linearGradient4018"
       inkscape:collect="always" />
    <radialGradient
       r="5"
       fy="485"
       fx="585"
       cy="485"
       cx="585"
       gradientTransform="matrix(-2,0,0,-2,405,1907.3622)"
       gradientUnits="userSpaceOnUse"
       id="radialGradient4042"
       xlink:href="#linearGradient4018"
       inkscape:collect="always" />
    <linearGradient
       y2="972.36218"
       x2="585"
       y1="972.36218"
       x1="575"
       gradientTransform="translate(190,-2.6171874e-6)"
       gradientUnits="userSpaceOnUse"
       id="linearGradient4044"
       xlink:href="#linearGradient4018"
       inkscape:collect="always" />
    <radialGradient
       r="5"
       fy="485"
       fx="585"
       cy="485"
       cx="585"
       gradientTransform="matrix(-2,0,0,-2,405,-37.362162)"
       gradientUnits="userSpaceOnUse"
       id="radialGradient4046"
       xlink:href="#linearGradient4018"
       inkscape:collect="always" />
    <linearGradient
       y2="972.36218"
       x2="585"
       y1="972.36218"
       x1="575"
       gradientTransform="matrix(1,0,0,2.5714286,-1512.3622,-3175.3599)"
       gradientUnits="userSpaceOnUse"
       id="linearGradient4050"
       xlink:href="#linearGradient4018"
       inkscape:collect="always" />
    <linearGradient
       y2="972.36218"
       x2="585"
       y1="972.36218"
       x1="575"
       gradientTransform="matrix(1,0,0,2.5714286,432.36217,-3175.3599)"
       gradientUnits="userSpaceOnUse"
       id="linearGradient4054"
       xlink:href="#linearGradient4018"
       inkscape:collect="always" />
    <linearGradient
       y2="555"
       x2="770"
       y1="490"
       x1="770"
       gradientUnits="userSpaceOnUse"
       id="linearGradient4118"
       xlink:href="#linearGradient3704"
       inkscape:collect="always" />
    <linearGradient
       y2="480"
       x2="770"
       y1="560"
       x1="770"
       gradientTransform="matrix(0.19444444,0,0,-1,-78.749997,1497.3622)"
       gradientUnits="userSpaceOnUse"
       id="linearGradient4125"
       xlink:href="#linearGradient3616"
       inkscape:collect="always" />
    <linearGradient
       y2="480"
       x2="770"
       y1="560"
       x1="770"
       gradientTransform="matrix(1,0,0,-1,0,1040)"
       gradientUnits="userSpaceOnUse"
       id="linearGradient4143"
       xlink:href="#linearGradient3616"
       inkscape:collect="always" />
    <linearGradient
       y2="555"
       x2="770"
       y1="490"
       x1="770"
       gradientUnits="userSpaceOnUse"
       id="linearGradient4150"
       xlink:href="#linearGradient3704"
       inkscape:collect="always" />
    <linearGradient
       y2="480"
       x2="770"
       y1="560"
       x1="770"
       gradientTransform="matrix(1,0,0,-1,0,1040)"
       gradientUnits="userSpaceOnUse"
       id="linearGradient4157"
       xlink:href="#linearGradient3616"
       inkscape:collect="always" />
    <linearGradient
       y2="480"
       x2="770"
       y1="560"
       x1="770"
       gradientTransform="matrix(1,0,0,-1,0,1040)"
       gradientUnits="userSpaceOnUse"
       id="linearGradient3383"
       xlink:href="#linearGradient3616"
       inkscape:collect="always" />
    <linearGradient
       y2="480"
       x2="770"
       y1="560"
       x1="770"
       gradientTransform="matrix(1,0,0,-1,0,1040)"
       gradientUnits="userSpaceOnUse"
       id="linearGradient3385"
       xlink:href="#linearGradient3616"
       inkscape:collect="always" />
    <linearGradient
       y2="555"
       x2="770"
       y1="490"
       x1="770"
       gradientUnits="userSpaceOnUse"
       id="linearGradient3387"
       xlink:href="#linearGradient3704"
       inkscape:collect="always" />
    <linearGradient
       y2="480"
       x2="770"
       y1="560"
       x1="770"
       gradientTransform="matrix(1,0,0,-1,0,1040)"
       gradientUnits="userSpaceOnUse"
       id="linearGradient3389"
       xlink:href="#linearGradient3616"
       inkscape:collect="always" />
    <linearGradient
       y2="555"
       x2="770"
       y1="490"
       x1="770"
       gradientUnits="userSpaceOnUse"
       id="linearGradient3391"
       xlink:href="#linearGradient3704"
       inkscape:collect="always" />
    <linearGradient
       y2="556.875"
       x2="581"
       y1="557.9375"
       x1="581"
       gradientUnits="userSpaceOnUse"
       id="linearGradient3393"
       xlink:href="#linearGradient3720"
       inkscape:collect="always" />
    <linearGradient
       y2="480"
       x2="770"
       y1="560"
       x1="770"
       gradientTransform="matrix(1,0,0,-1,0,1040)"
       gradientUnits="userSpaceOnUse"
       id="linearGradient3395"
       xlink:href="#linearGradient3616"
       inkscape:collect="always" />
    <linearGradient
       y2="556.875"
       x2="581"
       y1="557.9375"
       x1="581"
       gradientUnits="userSpaceOnUse"
       id="linearGradient3397"
       xlink:href="#linearGradient3720"
       inkscape:collect="always" />
    <linearGradient
       y2="480"
       x2="770"
       y1="560"
       x1="770"
       gradientTransform="matrix(1,0,0,-1,0,1040)"
       gradientUnits="userSpaceOnUse"
       id="linearGradient3399"
       xlink:href="#linearGradient3616"
       inkscape:collect="always" />
    <linearGradient
       y2="555"
       x2="770"
       y1="490"
       x1="770"
       gradientUnits="userSpaceOnUse"
       id="linearGradient3401"
       xlink:href="#linearGradient3704"
       inkscape:collect="always" />
    <linearGradient
       y2="480"
       x2="770"
       y1="560"
       x1="770"
       gradientTransform="matrix(1,0,0,-1,0,1040)"
       gradientUnits="userSpaceOnUse"
       id="linearGradient3403"
       xlink:href="#linearGradient3616"
       inkscape:collect="always" />
    <linearGradient
       y2="555"
       x2="770"
       y1="490"
       x1="770"
       gradientUnits="userSpaceOnUse"
       id="linearGradient3405"
       xlink:href="#linearGradient3704"
       inkscape:collect="always" />
  </defs>
  <metadata
     id="metadata7">
    <rdf:RDF>
      <cc:Work
         rdf:about="">
        <dc:format>image/svg+xml</dc:format>
        <dc:type
           rdf:resource="http://purl.org/dc/dcmitype/StillImage" />
        <dc:title />
      </cc:Work>
    </rdf:RDF>
  </metadata>
  <g
     transform="translate(0,-902.36218)"
     id="layer1"
     inkscape:groupmode="layer"
     inkscape:label="Layer 1">
    <rect
       y="902.36218"
       x="0"
       height="150"
       width="100"
       id="hint-stretch-borders"
       style="fill:#242424;fill-opacity:1;stroke:none" />
    <path
       id="center"
       d="m 70.000003,942.36218 -35,0 0,70.00002 35,0 0,-70.00002 z"
       style="fill:url(#linearGradient4125);fill-opacity:1;stroke:none" />
    <g
       transform="translate(-695,5)"
       id="bottomright">
      <path
         style="fill:url(#linearGradient4143);fill-opacity:1;stroke:none"
         d="m 769,555 -4,0 0,4 1,0 c 1.662,0 3,-0.338 3,-2 l 0,-2 z"
         id="path4148"
         transform="translate(0,452.36218)" />
      <path
         style="fill:url(#linearGradient3718);fill-opacity:1;stroke:none"
         d="m 765,559 2,0 c 1.108,0 2,-0.892 2,-2 l 0,-0.125 -1,0 0,0.125 c 0,0.554 -0.446,1 -1,1 l -2,0 0,1 z"
         id="path4092"
         transform="translate(0,452.36218)" />
      <path
         style="fill:url(#linearGradient4118);fill-opacity:1;stroke:none"
         d="m 769,555 -1,0 0,1.875 1,0 0,-1.875 z"
         id="path4123"
         transform="translate(0,452.36218)" />
      <path
         style="fill:#000000;fill-opacity:0.75480772;stroke:none"
         d="m 770,555 -1,0 0,1 0,1 c 0,1.108 -0.892,2 -2,2 l -1,0 -1,0 0,1 2,0 c 1.662,0 3,-1.338 3,-3 l 0,-2 z"
         id="path4135"
         transform="translate(0,452.36218)" />
    </g>
    <g
       transform="translate(-695,5)"
       id="right">
      <path
         style="fill:url(#linearGradient3403);fill-opacity:1;stroke:none"
         d="m 769,485 -4,0 0,70 4,0 0,-70 z"
         id="path4146"
         transform="translate(0,452.36218)" />
      <path
         style="fill:url(#linearGradient3405);fill-opacity:1;stroke:none"
         d="m 769,485 -1,0 0,70 1,0 0,-70 z"
         id="path4121"
         transform="translate(0,452.36218)" />
      <path
         style="fill:#000000;fill-opacity:0.75480772;stroke:none"
         d="m 770,485 -1,0 0,70 1,0 0,-70 z"
         id="path4133"
         transform="translate(0,452.36218)" />
    </g>
    <g
       transform="translate(-695,5)"
       id="topright">
      <path
         style="fill:url(#linearGradient3399);fill-opacity:1;stroke:none"
         d="m 765,481 0,4 4,0 0,-2 c 0,-1.662 -1.338,-2 -3,-2 l -1,0 z"
         id="path4076"
         transform="translate(0,452.36218)" />
      <path
         style="fill:url(#linearGradient3401);fill-opacity:1;stroke:none"
         d="m 765,481 0,1 2,0 c 0.554,0 1,0.446 1,1 l 0,2 1,0 0,-2 c 0,-1.108 -0.892,-2 -2,-2 l -2,0 z"
         id="path4071"
         transform="translate(0,452.36218)" />
      <path
         style="fill:#000000;fill-opacity:0.75480772;stroke:none"
         d="m 765,480 0,1 1,0 1,0 c 1.108,0 2,0.892 2,2 l 0,1 0,1 1,0 0,-2 c 0,-1.662 -1.338,-3 -3,-3 l -2,0 z"
         id="path4083"
         transform="translate(0,452.36218)" />
    </g>
    <g
       transform="matrix(0.19444444,0,0,1,-78.749997,5)"
       id="bottom">
      <path
         style="fill:url(#linearGradient3395);fill-opacity:1;stroke:none"
         d="m 765,555 -180,0 0,4 180,0 0,-4 z"
         id="path4130"
         transform="translate(0,452.36218)" />
      <path
         style="fill:url(#linearGradient3397);fill-opacity:1;stroke:none"
         d="m 585,558 0,1 180,0 0,-1 -180,0 z"
         id="path3702"
         transform="translate(0,452.36218)" />
      <path
         style="fill:#000000;fill-opacity:0.75480772;stroke:none"
         d="m 585,559 0,1 180,0 0,-1 -180,0 z"
         id="path4081"
         transform="translate(0,452.36218)" />
    </g>
    <g
       transform="translate(-550,5)"
       id="bottomleft">
      <path
         style="fill:url(#linearGradient4157);fill-opacity:1;stroke:none"
         d="m 585,555 -4,0 0,2 c 0,1.662 1.338,2 3,2 l 1,0 0,-4 z"
         id="path4162"
         transform="translate(0,452.36218)" />
      <path
         style="fill:url(#linearGradient3393);fill-opacity:1;stroke:none"
         d="m 585,558 -2,0 c -0.554,0 -1,-0.446 -1,-1 l 0,-0.125 -1,0 0,0.125 c 0,1.108 0.892,2 2,2 l 2,0 0,-1 z"
         id="path4090"
         transform="translate(0,452.36218)" />
      <path
         style="fill:url(#linearGradient4150);fill-opacity:1;stroke:none"
         d="m 582,555 -1,0 0,1.875 1,0 0,-1.875 z"
         id="path4155"
         transform="translate(0,452.36218)" />
      <path
         style="fill:#000000;fill-opacity:0.75480772;stroke:none"
         d="m 581,555 -1,0 0,2 c 0,1.662 1.338,3 3,3 l 2,0 0,-1 -1,0 -1,0 c -1.108,0 -2,-0.892 -2,-2 l 0,-1 0,-1 z"
         id="path4167"
         transform="translate(0,452.36218)" />
    </g>
    <g
       transform="translate(-550,5)"
       id="left">
      <path
         style="fill:url(#linearGradient3389);fill-opacity:1;stroke:none"
         d="m 585,485 -4,0 0,70 4,0 0,-70 z"
         id="path4160"
         transform="translate(0,452.36218)" />
      <path
         style="fill:url(#linearGradient3391);fill-opacity:1;stroke:none"
         d="m 582,485 -1,0 0,70 1,0 0,-70 z"
         id="path4153"
         transform="translate(0,452.36218)" />
      <path
         style="fill:#000000;fill-opacity:0.75480772;stroke:none"
         d="m 581,485 -1,0 0,70 1,0 0,-70 z"
         id="path4165"
         transform="translate(0,452.36218)" />
    </g>
    <g
       transform="translate(-550,5)"
       id="topleft">
      <path
         style="fill:url(#linearGradient3385);fill-opacity:1;stroke:none"
         d="m 584,481 c -1.662,0 -3,0.338 -3,2 l 0,2 4,0 0,-4 -1,0 z"
         id="path4074"
         transform="translate(0,452.36218)" />
      <path
         style="fill:url(#linearGradient3387);fill-opacity:1;stroke:none"
         d="m 583,481 c -1.108,0 -2,0.892 -2,2 l 0,2 1,0 0,-2 c 0,-0.554 0.446,-1 1,-1 l 2,0 0,-1 -2,0 z"
         id="path4069"
         transform="translate(0,452.36218)" />
      <path
         style="fill:#000000;fill-opacity:0.75480772;stroke:none"
         d="m 583,480 c -1.662,0 -3,1.338 -3,3 l 0,2 1,0 0,-1 0,-1 c 0,-1.108 0.892,-2 2,-2 l 1,0 1,0 0,-1 -2,0 z"
         id="path4079"
         transform="translate(0,452.36218)" />
    </g>
    <g
       transform="matrix(0.19444444,0,0,1,-78.749997,5)"
       id="top">
      <path
         style="fill:url(#linearGradient3383);fill-opacity:1;stroke:none"
         d="m 585,481 0,4 180,0 0,-4 -180,0 z"
         id="rect3606"
         transform="translate(0,452.36218)" />
      <path
         style="fill:url(#linearGradient3710);fill-opacity:1;stroke:none"
         d="m 585,481 0,1 180,0 0,-1 -180,0 z"
         id="rect3622"
         transform="translate(0,452.36218)" />
      <path
         style="fill:#000000;fill-opacity:0.75480772;stroke:none"
         d="m 585,480 0,1 180,0 0,-1 -180,0 z"
         id="rect3645"
         transform="translate(0,452.36218)" />
    </g>
  </g>
</svg>
